<svg width="512" height="512" xmlns="http://www.w3.org/2000/svg">

 <g>
  <title>background</title>
  <rect fill="none" id="canvas_background" height="402" width="582" y="-1" x="-1"/>
 </g>
 <g>
  <title>Layer 1</title>
  <path fill="#0cd1e8" id="svg_1" d="m474.1,398.2l-244.3,-230.4s8.8,-57.7 26.2,-71.8c17.5,-14.2 48,-32 48,-32l0,-32c-32,0 -58.8,8.3 -96.9,27.3c-38,18.9 -66.8,47.8 -74.4,55.4c-7.6,7.6 -18.1,19.5 -24.7,28.9s-5.3,20.1 -5.3,20.1l-19.7,17l-4,-4c-2.3,-2.3 -6.2,-2.3 -8.5,0l-36.8,36.8c-2.3,2.3 -2.3,6.2 0,8.5l59.4,59.4c2.3,2.3 6.2,2.3 8.5,0l36.8,-36.8c2.3,-2.3 2.3,-6.2 0,-8.5l-10.3,-10.3l14.6,-14.3c6.8,-3.7 25.4,-8.9 39.1,-5.1l214.9,267.3c8.1,8.2 20.3,8.2 28.5,0l46.8,-47.1c10.3,-8 10.3,-22.3 2.1,-28.4z"/>
 </g>
</svg>